<svg xmlns="http://www.w3.org/2000/svg" xmlns:xlink="http://www.w3.org/1999/xlink" width="40" zoomAndPan="magnify" viewBox="0 0 30 30.000001" height="40" preserveAspectRatio="xMidYMid meet" version="1.0"><defs><clipPath id="id1"><path d="M 0.484375 1.054688 L 29.515625 1.054688 L 29.515625 27.890625 L 0.484375 27.890625 Z M 0.484375 1.054688 " clip-rule="nonzero"/></clipPath></defs><path fill="#ffffff" d="M 13.964844 8.265625 C 12.246094 8.265625 10.851562 9.65625 10.851562 11.367188 L 10.851562 13.429688 L 9.816406 13.429688 L 9.816406 19.628906 L 18.109375 19.628906 L 18.109375 13.429688 L 17.074219 13.429688 L 17.074219 11.367188 C 17.074219 9.65625 15.679688 8.265625 13.964844 8.265625 Z M 16.035156 13.429688 L 11.890625 13.429688 L 11.890625 11.367188 C 11.890625 10.226562 12.820312 9.300781 13.964844 9.300781 C 15.105469 9.300781 16.035156 10.226562 16.035156 11.367188 Z M 16.035156 13.429688 " fill-opacity="1" fill-rule="nonzero"/><g clip-path="url(#id1)"><path fill="#ffffff" d="M 13.964844 1.035156 C 6.519531 1.035156 0.484375 7.046875 0.484375 14.464844 C 0.484375 21.878906 6.519531 27.890625 13.964844 27.890625 C 17.683594 27.890625 21.054688 26.390625 23.492188 23.957031 L 22.757812 23.222656 C 20.503906 25.46875 17.394531 26.859375 13.964844 26.859375 C 7.101562 26.859375 1.523438 21.300781 1.523438 14.464844 C 1.523438 7.628906 7.101562 2.070312 13.964844 2.070312 C 20.824219 2.070312 26.40625 7.628906 26.40625 14.464844 L 24.332031 14.464844 L 26.921875 17.5625 L 29.515625 14.464844 L 27.441406 14.464844 C 27.441406 7.046875 21.40625 1.035156 13.964844 1.035156 Z M 13.964844 1.035156 " fill-opacity="1" fill-rule="nonzero"/></g></svg>