<svg xmlns="http://www.w3.org/2000/svg" xmlns:xlink="http://www.w3.org/1999/xlink" width="168" zoomAndPan="magnify" viewBox="0 0 126 32.999998" height="44" preserveAspectRatio="xMidYMid meet" version="1.0"><defs><g/><clipPath id="id1"><path d="M 70.402344 0 L 125.902344 0 L 125.902344 28.5 L 70.402344 28.5 Z M 70.402344 0 " clip-rule="nonzero"/></clipPath></defs><g clip-path="url(#id1)"><path fill="#3485ff" d="M 119.460938 8.039062 L 118.058594 8.039062 L 118.058594 9.457031 L 119.460938 9.457031 Z M 116.003906 8.039062 L 114.605469 8.039062 L 114.605469 9.457031 L 116.003906 9.457031 Z M 112.550781 8.039062 L 111.148438 8.039062 L 111.148438 9.457031 L 112.550781 9.457031 Z M 115.609375 14.214844 L 122.488281 14.214844 L 122.488281 3.449219 L 106.597656 3.449219 L 106.597656 20.097656 L 106.652344 20.097656 C 106.964844 19.527344 107.300781 18.957031 107.640625 18.414062 L 108.847656 16.605469 L 110.394531 14.28125 L 110.410156 14.253906 L 110.410156 14.214844 Z M 112.769531 17.460938 L 110.664062 19.871094 L 116.316406 28.183594 L 111.03125 28.183594 L 107.699219 22.441406 L 106.597656 23.8125 L 106.597656 28.183594 L 102.300781 28.183594 L 102.300781 7.898438 L 102.3125 7.898438 L 102.3125 0 L 125.882812 0 L 125.882812 17.460938 Z M 96.238281 28.183594 L 100.53125 28.183594 L 100.53125 8.929688 L 96.238281 8.929688 Z M 90.164062 21.585938 C 87.90625 21.558594 86.152344 22.097656 86.152344 23.785156 C 86.152344 24.898438 86.886719 25.441406 87.847656 25.441406 C 88.921875 25.441406 89.796875 24.726562 90.078125 23.84375 C 90.136719 23.613281 90.164062 23.355469 90.164062 23.097656 Z M 94.347656 24.785156 C 94.347656 26.128906 94.402344 27.414062 94.542969 28.183594 L 90.671875 28.183594 L 90.417969 26.785156 L 90.335938 26.785156 C 89.429688 27.898438 88.015625 28.5 86.378906 28.5 C 83.582031 28.5 81.914062 26.441406 81.914062 24.214844 C 81.914062 20.585938 85.136719 18.84375 90.023438 18.871094 L 90.023438 18.671875 C 90.023438 17.929688 89.628906 16.871094 87.507812 16.871094 C 86.097656 16.871094 84.597656 17.355469 83.695312 17.929688 L 82.902344 15.128906 C 83.863281 14.585938 85.757812 13.898438 88.273438 13.898438 C 92.878906 13.898438 94.347656 16.640625 94.347656 19.929688 Z M 85.058594 8.929688 L 85.058594 12.585938 L 79.945312 12.585938 L 79.945312 28.183594 L 75.621094 28.183594 L 75.621094 10.304688 L 74.28125 12.585938 L 70.425781 12.585938 L 70.425781 8.929688 L 85.058594 8.929688 " fill-opacity="1" fill-rule="nonzero"/></g><g fill="#0d114f" fill-opacity="1"><g transform="translate(0.0103148, 26.4222)"><g><path d="M 8.484375 -17.859375 C 10.359375 -17.859375 12 -17.484375 13.40625 -16.734375 C 14.820312 -15.984375 15.910156 -14.929688 16.671875 -13.578125 C 17.429688 -12.222656 17.8125 -10.675781 17.8125 -8.9375 C 17.8125 -7.21875 17.425781 -5.679688 16.65625 -4.328125 C 15.882812 -2.984375 14.789062 -1.925781 13.375 -1.15625 C 11.96875 -0.382812 10.335938 0 8.484375 0 L 1.421875 0 L 1.421875 -17.859375 Z M 8.109375 -4.375 C 9.554688 -4.375 10.691406 -4.769531 11.515625 -5.5625 C 12.347656 -6.363281 12.765625 -7.488281 12.765625 -8.9375 C 12.765625 -10.40625 12.347656 -11.539062 11.515625 -12.34375 C 10.691406 -13.144531 9.554688 -13.546875 8.109375 -13.546875 L 6.375 -13.546875 L 6.375 -4.375 Z M 8.109375 -4.375 "/></g></g></g><g fill="#0d114f" fill-opacity="1"><g transform="translate(18.623273, 26.4222)"><g><path d="M 0.609375 -7.125 C 0.609375 -8.59375 0.875 -9.875 1.40625 -10.96875 C 1.9375 -12.0625 2.660156 -12.90625 3.578125 -13.5 C 4.503906 -14.09375 5.53125 -14.390625 6.65625 -14.390625 C 7.632812 -14.390625 8.476562 -14.191406 9.1875 -13.796875 C 9.90625 -13.410156 10.457031 -12.890625 10.84375 -12.234375 L 10.84375 -14.203125 L 15.8125 -14.203125 L 15.8125 0 L 10.84375 0 L 10.84375 -1.96875 C 10.457031 -1.3125 9.90625 -0.789062 9.1875 -0.40625 C 8.46875 -0.0195312 7.625 0.171875 6.65625 0.171875 C 5.53125 0.171875 4.503906 -0.117188 3.578125 -0.703125 C 2.660156 -1.296875 1.9375 -2.144531 1.40625 -3.25 C 0.875 -4.351562 0.609375 -5.644531 0.609375 -7.125 Z M 10.84375 -7.125 C 10.84375 -8.03125 10.59375 -8.742188 10.09375 -9.265625 C 9.59375 -9.796875 8.976562 -10.0625 8.25 -10.0625 C 7.507812 -10.0625 6.894531 -9.800781 6.40625 -9.28125 C 5.914062 -8.769531 5.671875 -8.050781 5.671875 -7.125 C 5.671875 -6.207031 5.914062 -5.484375 6.40625 -4.953125 C 6.894531 -4.421875 7.507812 -4.15625 8.25 -4.15625 C 8.976562 -4.15625 9.59375 -4.414062 10.09375 -4.9375 C 10.59375 -5.457031 10.84375 -6.1875 10.84375 -7.125 Z M 10.84375 -7.125 "/></g></g></g><g fill="#0d114f" fill-opacity="1"><g transform="translate(35.84343, 26.4222)"><g><path d="M 6.375 -11.703125 C 6.9375 -12.515625 7.613281 -13.15625 8.40625 -13.625 C 9.195312 -14.09375 10.050781 -14.328125 10.96875 -14.328125 L 10.96875 -9.046875 L 9.578125 -9.046875 C 8.492188 -9.046875 7.6875 -8.832031 7.15625 -8.40625 C 6.632812 -7.988281 6.375 -7.253906 6.375 -6.203125 L 6.375 0 L 1.421875 0 L 1.421875 -14.203125 L 6.375 -14.203125 Z M 6.375 -11.703125 "/></g></g></g><g fill="#0d114f" fill-opacity="1"><g transform="translate(47.163148, 26.4222)"><g><path d="M 15 -7.265625 C 15 -6.878906 14.972656 -6.492188 14.921875 -6.109375 L 5.515625 -6.109375 C 5.566406 -5.328125 5.78125 -4.742188 6.15625 -4.359375 C 6.539062 -3.984375 7.03125 -3.796875 7.625 -3.796875 C 8.445312 -3.796875 9.035156 -4.164062 9.390625 -4.90625 L 14.6875 -4.90625 C 14.46875 -3.925781 14.039062 -3.050781 13.40625 -2.28125 C 12.78125 -1.519531 11.984375 -0.921875 11.015625 -0.484375 C 10.054688 -0.046875 8.992188 0.171875 7.828125 0.171875 C 6.421875 0.171875 5.171875 -0.117188 4.078125 -0.703125 C 2.992188 -1.296875 2.144531 -2.140625 1.53125 -3.234375 C 0.914062 -4.335938 0.609375 -5.632812 0.609375 -7.125 C 0.609375 -8.601562 0.910156 -9.882812 1.515625 -10.96875 C 2.128906 -12.0625 2.976562 -12.90625 4.0625 -13.5 C 5.15625 -14.09375 6.410156 -14.390625 7.828125 -14.390625 C 9.222656 -14.390625 10.460938 -14.101562 11.546875 -13.53125 C 12.628906 -12.957031 13.472656 -12.132812 14.078125 -11.0625 C 14.691406 -9.988281 15 -8.722656 15 -7.265625 Z M 9.921875 -8.515625 C 9.921875 -9.117188 9.71875 -9.59375 9.3125 -9.9375 C 8.914062 -10.28125 8.410156 -10.453125 7.796875 -10.453125 C 7.191406 -10.453125 6.691406 -10.285156 6.296875 -9.953125 C 5.910156 -9.628906 5.660156 -9.148438 5.546875 -8.515625 Z M 9.921875 -8.515625 "/></g></g></g><g fill="#0d114f" fill-opacity="1"><g transform="translate(62.762585, 26.4222)"><g><path d="M 3.828125 0.203125 C 2.941406 0.203125 2.234375 -0.0351562 1.703125 -0.515625 C 1.171875 -0.992188 0.90625 -1.609375 0.90625 -2.359375 C 0.90625 -3.097656 1.171875 -3.710938 1.703125 -4.203125 C 2.234375 -4.691406 2.941406 -4.9375 3.828125 -4.9375 C 4.679688 -4.9375 5.375 -4.691406 5.90625 -4.203125 C 6.445312 -3.710938 6.71875 -3.097656 6.71875 -2.359375 C 6.71875 -1.628906 6.445312 -1.019531 5.90625 -0.53125 C 5.375 -0.0390625 4.679688 0.203125 3.828125 0.203125 Z M 3.828125 0.203125 "/></g></g></g></svg>